<svg width="122" height="123" viewBox="0 0 122 123" fill="none" xmlns="http://www.w3.org/2000/svg">
<g clip-path="url(#clip0)">
<g clip-path="url(#clip1)">
<path fill-rule="evenodd" clip-rule="evenodd" d="M72.09 18.72H114.46C116.51 18.72 118.35 19.56 119.68 20.9C121.02 22.24 121.86 24.1 121.86 26.12V115.48C121.86 117.53 121.02 119.37 119.68 120.7C118.34 122.04 116.48 122.88 114.46 122.88H24.48C22.43 122.88 20.59 122.04 19.26 120.7C17.92 119.36 17.08 117.5 17.08 115.48V71.46C19.55 72.46 22.13 73.24 24.8 73.75V94.03H24.83C37.72 81.7 46.26 75.61 59.08 65.2C59.13 65.25 59.18 65.3 59.23 65.35C59.26 65.38 59.26 65.41 59.29 65.41L86.11 97.14L90.21 71.9C90.49 70.28 92.01 69.17 93.63 69.45C94.25 69.54 94.81 69.85 95.25 70.26L114.07 90.03V27.91C114.07 27.51 113.91 27.16 113.63 26.92C113.38 26.67 113.01 26.48 112.64 26.48H74.05C73.64 23.8 72.98 21.21 72.09 18.72ZM32.79 0C50.9 0 65.58 14.68 65.58 32.79C65.58 50.9 50.9 65.58 32.79 65.58C14.68 65.58 0 50.9 0 32.79C0 14.68 14.68 0 32.79 0ZM15.37 33.37H26.41V49.13H38.86V33.37H50.22L32.8 16.44L15.37 33.37ZM94.27 35.66C97.22 35.66 99.93 36.87 101.85 38.8C103.81 40.76 104.99 43.43 104.99 46.39C104.99 49.34 103.78 52.05 101.85 53.97C99.89 55.93 97.22 57.11 94.27 57.11C91.32 57.11 88.61 55.9 86.68 53.97C84.72 52.01 83.54 49.34 83.54 46.39C83.54 43.44 84.75 40.74 86.68 38.8C88.65 36.84 91.32 35.66 94.27 35.66Z" fill="white"/>
</g>
</g>
<defs>
<clipPath id="clip0">
<rect width="121.86" height="122.88" fill="white"/>
</clipPath>
<clipPath id="clip1">
<rect width="121.86" height="122.88" fill="white"/>
</clipPath>
</defs>
</svg>
